<svg width="21" height="21" viewBox="0 0 21 21" fill="none" xmlns="http://www.w3.org/2000/svg">
<path d="M15.3667 19.2333H5.63336C4.61114 19.2333 3.73336 18.8667 3.00002 18.1333C2.26669 17.4 1.90002 16.5222 1.90002 15.5L2.23336 5.36667C2.2778 4.34445 2.66669 3.48889 3.40002 2.8C4.13336 2.11111 5.01114 1.76667 6.03336 1.76667H15.0334C16.0111 1.76667 16.8667 2.11111 17.6 2.8C18.3334 3.48889 18.7222 4.34445 18.7667 5.36667L19.1 15.3667C19.1889 16.3889 18.8556 17.2778 18.1 18.0333C17.7889 18.4333 17.4 18.7333 16.9334 18.9333C16.4667 19.1333 15.9889 19.2333 15.5 19.2333H15.3667ZM6.03336 2.96667C5.32225 2.96667 4.73336 3.2 4.26669 3.66667C3.80002 4.13334 3.54447 4.7 3.50002 5.36667L3.10002 15.5C3.10002 16.1667 3.34447 16.7444 3.83336 17.2333C4.32225 17.7222 4.92225 17.9667 5.63336 17.9667H15.5C16.2111 17.9667 16.8 17.7111 17.2667 17.2C17.7334 16.6889 17.9667 16.0778 17.9667 15.3667L17.5667 5.36667C17.5222 4.7 17.2667 4.13334 16.8 3.66667C16.3334 3.2 15.7445 2.96667 15.0334 2.96667H6.03336ZM10.5 9.23334C9.70002 9.23334 8.96669 9.04445 8.30002 8.66667C7.63336 8.28889 7.10002 7.76667 6.70002 7.1C6.30002 6.43334 6.10002 5.7 6.10002 4.9C6.10002 4.67778 6.16669 4.51111 6.30002 4.4C6.43336 4.28889 6.58891 4.23334 6.76669 4.23334C6.94447 4.23334 7.08891 4.28889 7.20002 4.4C7.31114 4.51111 7.36669 4.67778 7.36669 4.9C7.36669 5.74445 7.66669 6.46667 8.26669 7.06667C8.86669 7.66667 9.61114 7.96667 10.5 7.96667C11.3889 7.96667 12.1334 7.66667 12.7334 7.06667C13.3334 6.46667 13.6334 5.74445 13.6334 4.9C13.6334 4.67778 13.6889 4.51111 13.8 4.4C13.9111 4.28889 14.0556 4.23334 14.2334 4.23334C14.4111 4.23334 14.5667 4.28889 14.7 4.4C14.8334 4.51111 14.9 4.67778 14.9 4.9C14.9 5.7 14.7 6.43334 14.3 7.1C13.9 7.76667 13.3667 8.28889 12.7 8.66667C12.0334 9.04445 11.3 9.23334 10.5 9.23334Z" fill="black"/>
</svg>
