<svg width="21" height="21" viewBox="0 0 21 21" fill="none" xmlns="http://www.w3.org/2000/svg">
<path d="M17.5667 13.4333C16.5 12.3222 15.2333 11.5222 13.7667 11.0333C14.5222 10.5 15.1333 9.82222 15.6 9C16.0667 8.17778 16.3 7.25556 16.3 6.23333C16.3 5.21111 16.0333 4.25555 15.5 3.36666C14.9667 2.47778 14.2667 1.77778 13.4 1.26667C12.5333 0.755554 11.5667 0.499998 10.5 0.499998C9.43333 0.499998 8.46667 0.755554 7.6 1.26667C6.73333 1.77778 6.03333 2.47778 5.5 3.36666C4.96667 4.25555 4.7 5.21111 4.7 6.23333C4.7 7.25556 4.93333 8.17778 5.4 9C5.86667 9.82222 6.47778 10.5 7.23333 11.0333C5.76667 11.5222 4.5 12.3222 3.43333 13.4333C2.5 14.3667 1.77778 15.4444 1.26667 16.6667C0.755556 17.8889 0.5 19.1667 0.5 20.5H2.03333C2.03333 18.9889 2.42222 17.5889 3.2 16.3C3.97778 15.0111 5.01111 13.9778 6.3 13.2C7.58889 12.4222 8.98889 12.0333 10.5 12.0333C12.0111 12.0333 13.4111 12.4222 14.7 13.2C15.9889 13.9778 17.0222 15.0111 17.8 16.3C18.5778 17.5889 18.9667 18.9889 18.9667 20.5H20.5C20.5 19.1667 20.2444 17.8889 19.7333 16.6667C19.2222 15.4444 18.5 14.3667 17.5667 13.4333ZM10.5 10.5C9.74444 10.5 9.04445 10.3111 8.4 9.93333C7.75556 9.55556 7.24444 9.04444 6.86667 8.4C6.48889 7.75556 6.3 7.05555 6.3 6.3C6.3 5.54444 6.48889 4.83333 6.86667 4.16667C7.24444 3.5 7.75556 2.97778 8.4 2.6C9.04445 2.22222 9.74444 2.03333 10.5 2.03333C11.2556 2.03333 11.9556 2.22222 12.6 2.6C13.2444 2.97778 13.7556 3.5 14.1333 4.16667C14.5111 4.83333 14.7 5.54444 14.7 6.3C14.7 7.05555 14.5111 7.75556 14.1333 8.4C13.7556 9.04444 13.2444 9.55556 12.6 9.93333C11.9556 10.3111 11.2556 10.5 10.5 10.5Z" fill="black"/>
</svg>
