<svg width="15" height="15" viewBox="0 0 15 15" fill="none" xmlns="http://www.w3.org/2000/svg">
<path d="M2.64665 6.84649C2.39776 6.84649 2.17221 6.90872 1.96999 7.03316C1.76776 7.1576 1.61221 7.33649 1.50332 7.56983C1.39443 7.80316 1.35554 8.03649 1.38665 8.26983C1.41776 8.50316 1.5111 8.72872 1.66665 8.94649L4.88665 12.9132C5.13554 13.2243 5.46221 13.3643 5.86665 13.3332C6.2711 13.302 6.59776 13.1154 6.84665 12.7732L13.6133 1.89983C13.6444 1.8376 13.6522 1.7676 13.6367 1.68983C13.6211 1.61205 13.5744 1.54205 13.4967 1.47983C13.4189 1.4176 13.3333 1.38649 13.24 1.38649C13.1467 1.38649 13.0689 1.43316 13.0067 1.52649L6.19332 9.22649C6.1311 9.28872 6.0611 9.31983 5.98332 9.31983C5.90554 9.31983 5.83554 9.28872 5.77332 9.22649L3.48665 7.17316C3.23776 6.95538 2.95776 6.84649 2.64665 6.84649Z" fill="white"/>
</svg>
