<svg width="21" height="21" viewBox="0 0 21 21" fill="none" xmlns="http://www.w3.org/2000/svg">
<path d="M18.9 3.83334C18.1889 3.12223 17.3556 2.63334 16.4 2.36668C15.4444 2.10001 14.4889 2.10001 13.5333 2.36668C12.5778 2.63334 11.7444 3.12223 11.0333 3.83334L10.5 4.30001L9.96667 3.83334C9.25556 3.12223 8.42223 2.63334 7.46667 2.36668C6.51112 2.10001 5.55556 2.10001 4.6 2.36668C3.64445 2.63334 2.81112 3.11112 2.1 3.80001C1.38889 4.4889 0.911115 5.30001 0.666671 6.23334C0.422226 7.16668 0.422226 8.11112 0.666671 9.06668C0.911115 10.0222 1.38889 10.8778 2.1 11.6333C2.9 12.5667 4.41112 13.9889 6.63334 15.9C7.78889 16.8778 8.87778 17.7889 9.9 18.6333C10.0778 18.7667 10.2778 18.8333 10.5 18.8333C10.7222 18.8333 10.9222 18.7667 11.1 18.6333C12.1222 17.7889 13.2111 16.8778 14.3667 15.9C16.5889 13.9889 18.1 12.5667 18.9 11.6333C19.6111 10.8778 20.0889 10.0222 20.3333 9.06668C20.5778 8.11112 20.5778 7.16668 20.3333 6.23334C20.0889 5.30001 19.6111 4.50001 18.9 3.83334ZM17.6333 10.5C16.5222 11.7 14.1444 13.8111 10.5 16.8333C6.85556 13.8111 4.47778 11.7 3.36667 10.5C2.65556 9.65557 2.28889 8.72223 2.26667 7.70001C2.24445 6.67779 2.61112 5.80001 3.36667 5.06668C4.12223 4.33334 5.02223 3.96668 6.06667 3.96668C7.11112 3.96668 8.01112 4.32223 8.76667 5.03334L9.83334 6.16668C9.96667 6.30001 10.1222 6.3889 10.3 6.43334C10.6556 6.47779 10.9444 6.3889 11.1667 6.16668L12.2333 5.03334C12.9889 4.32223 13.8889 3.96668 14.9333 3.96668C15.9778 3.96668 16.8778 4.33334 17.6333 5.06668C18.3889 5.80001 18.7556 6.67779 18.7333 7.70001C18.7111 8.72223 18.3444 9.65557 17.6333 10.5Z" fill="black"/>
</svg>
